<?xml version="1.0" encoding="utf-8"?>
<!-- Generator: Adobe Illustrator 14.0.0, SVG Export Plug-In . SVG Version: 6.00 Build 43363)  -->
<!DOCTYPE svg PUBLIC "-//W3C//DTD SVG 1.1//EN" "http://www.w3.org/Graphics/SVG/1.1/DTD/svg11.dtd">
<svg version="1.1" xmlns="http://www.w3.org/2000/svg" xmlns:xlink="http://www.w3.org/1999/xlink" x="0px" y="0px"
	 width="392.072px" height="157.731px" viewBox="8.428 198.269 392.072 157.731"
	 enable-background="new 8.428 198.269 392.072 157.731" xml:space="preserve">
<g id="reference" display="none">
	
		<image display="inline" overflow="visible" width="949" height="1080" xlink:href="abstract-water-beach-sunset-logo-vector-5600139.jpg"  transform="matrix(0.5 0 0 0.5 -76.3896 32.9336)">
	</image>
</g>
<g id="scratch">
	
		<linearGradient id="SVGID_1_" gradientUnits="userSpaceOnUse" x1="8.4272" y1="341.3613" x2="231.8496" y2="341.3613" gradientTransform="matrix(1.3111 0 0 1 -2.6211 0)">
		<stop  offset="0" style="stop-color:#66A5FF"/>
		<stop  offset="0.3273" style="stop-color:#9AC4FF"/>
		<stop  offset="0.6226" style="stop-color:#C2DBFF"/>
		<stop  offset="0.8566" style="stop-color:#DAE9FF"/>
		<stop  offset="1" style="stop-color:#E3EFFF"/>
	</linearGradient>
	<path fill="url(#SVGID_1_)" d="M8.428,348.296c0,0,42.423-21.572,82.826-21.572c59.089,0,106.058,18.105,155.047,18.105
		c27.776,0,55.049-7.319,55.049-7.319S263.472,356,225.594,356C175.595,356,116,336.354,76.085,336.354
		C48.303,336.354,8.428,348.296,8.428,348.296z"/>
	
		<radialGradient id="SVGID_2_" cx="169.5" cy="318" r="103.407" gradientTransform="matrix(1.2966 0 0 1 -7.2656 0)" gradientUnits="userSpaceOnUse">
		<stop  offset="0" style="stop-color:#E3EFFF"/>
		<stop  offset="0.2182" style="stop-color:#E0EDFF"/>
		<stop  offset="0.3936" style="stop-color:#D6E7FF"/>
		<stop  offset="0.554" style="stop-color:#C5DDFF"/>
		<stop  offset="0.7055" style="stop-color:#ADCFFF"/>
		<stop  offset="0.8508" style="stop-color:#8EBDFF"/>
		<stop  offset="0.9896" style="stop-color:#69A7FF"/>
		<stop  offset="1" style="stop-color:#66A5FF"/>
	</radialGradient>
	<path fill="url(#SVGID_2_)" d="M24.5,327c0,0,54.455-28,106.317-28c75.848,0,136.138,23.5,199.021,23.5
		c35.655,0,70.662-9.5,70.662-9.5s-48.621,24-97.241,24c-64.18,0-140.676-25.5-191.913-25.5C75.686,311.5,24.5,327,24.5,327z"/>
	<path fill="#FF7D00" d="M63.087,304.676c17.677-51.666,62.65-87.215,115.354-87.215c40.004,0,75.55,21.153,98.087,53.943
		c-20.386-43.141-65.529-73.135-117.963-73.135c-69.546,0-126.288,52.773-129.405,119.003
		C38.667,313.551,50.272,308.281,63.087,304.676z"/>
	<linearGradient id="SVGID_3_" gradientUnits="userSpaceOnUse" x1="90.8242" y1="286.876" x2="90.8242" y2="218.1167">
		<stop  offset="0" style="stop-color:#00800B"/>
		<stop  offset="0.2211" style="stop-color:#009D0D"/>
		<stop  offset="0.5619" style="stop-color:#00C410"/>
		<stop  offset="0.8335" style="stop-color:#00DD12"/>
		<stop  offset="1" style="stop-color:#00E513"/>
	</linearGradient>
	<path fill="url(#SVGID_3_)" stroke="#5C2517" stroke-width="2" d="M130.595,262.999c4.955-6.68,3.539-9.047-1.448-3.659
		c-4.987,5.389-11.216,8.642-16.477,8.806c-1.141-0.296-2.226-0.973-2.726-2.279c4.564-3.534,9.108-7.596,13.462-11.709
		c6.473-6.448,13.384-12.521,17.052-21.392c1.162-3.889,1.526-8.375-0.636-11.812c-1.092-1.982-3.05-2.752-4.914-2.837
		c-15.311,0.763-24.77,20.186-32.482,34.426c-3.27,4.79-3.157,13.452-9.213,15.037c-0.835,0.307-2.183,0.087-2.569-1.316
		c-1.06-3.55,0.537-7.716,2.37-10.125c3.815-5.822,12.302-7.822,12.018-16.664c-0.082-1.461-1.397-2.585-2.008-3.136
		c2.71-1.656,5.846-1.503,8.269-3.889c0.887-1.339,1.106-3.506,0.871-5.269c-0.656-2.266-2.181-3.312-3.76-3.98
		c-22.602-2.031-45.826,10.309-61.558,34.13c-3.797,5.695-7.906,13.539-6.182,21.969c1.239,5.029,4.78,7.121,8.563,7.573
		c10.033,0.23,19.194-8.402,27.562-16.325c-1.146,3.764-1.299,8.175-0.047,11.769c0.596,1.99,2.004,2.48,3.485,2.467
		c6.233-0.089,11.837-4.667,17.406-8.989c0.409,2.59,2.069,4.723,3.804,5.69c6.207,2.779,12.351-1.439,17.137-5.79
		S125.639,269.679,130.595,262.999z M66.648,267.022c-2.788,1.506-5.528,4.067-8.634,3.009c-0.767-1.508,0.293-3.33,0.684-4.664
		c6.906-12.095,18.887-18.428,28.974-23.947c3.298-1.635,6.582-3.146,9.978-4.103C88.496,247.919,77.902,258.927,66.648,267.022z
		 M127.443,232.04c0.661-0.482,1.784-0.066,1.696,1.225c-0.576,3.251-2.638,5.208-4.376,7.64
		c-4.689,5.729-9.818,11.082-15.384,16.057C113.327,246.855,119.088,237.868,127.443,232.04z"/>
	<linearGradient id="SVGID_4_" gradientUnits="userSpaceOnUse" x1="232.0244" y1="284.8076" x2="232.0244" y2="220.6436">
		<stop  offset="0" style="stop-color:#00800B"/>
		<stop  offset="0.2211" style="stop-color:#009D0D"/>
		<stop  offset="0.5619" style="stop-color:#00C410"/>
		<stop  offset="0.8335" style="stop-color:#00DD12"/>
		<stop  offset="1" style="stop-color:#00E513"/>
	</linearGradient>
	<path fill="url(#SVGID_4_)" stroke="#5C2517" stroke-width="2" d="M294.777,244.155c-0.822-1.127-2.267-1.37-3.403-1.008
		c-13.613,7.356-26.956,15.564-40.628,22.643c-1.009,0.135-2.452-0.107-2.705-1.743c0.269-3.857,3.971-4.868,5.289-7.8
		c1.413-2.25,3.376-5.539,2.071-8.757c-0.958-1.556-2.912-1.666-4.187-1.735c0.358-0.426,0.699-0.732,0.887-1.34
		c1.074-2.607,1.062-5.881-0.393-8.085c-1.45-1.549-3.672-1.208-5.419-0.743c-9.596,4.856-18.949,12.783-27.711,21.39
		c-2.688,2.187-5.279,5.054-8.259,5.856c-0.267-0.202-0.496-0.651-0.421-1.156c2.546-4.581,5.702-8.612,7.732-13.714
		c0.26-1.766,0.198-3.354-0.794-4.657c-1.355-1.526-3.504-1.028-5.001-0.24l-16.106,10.244c-0.853,0.436-2.011,0.923-2.661-0.03
		c0.016-0.781,0.395-1.337,0.771-1.896l16.872-14.105c2.728-2.439,5.453-4.878,6.959-8.415c0.712-2.171,0.131-4.287-0.976-6.142
		c-1.322-2.434-4.114-2.237-6.055-1.832c-4.93,2.657-9.756,7.303-14.395,11.342c-6.044,4.782-10.348,12.834-16.797,15.555
		c0,0-6.121,3.544-7.075,6.573c-1.137,3.608,5.178,5.782,5.178,5.782c-2.789,5.562-6.339,10.928-8.709,16.991
		c-0.673,2.576-0.605,5.475,1,7.328c1.77,0.719,3.516,0.252,5.052-0.791c7.473-7.231,14.568-15.224,22.5-22.209l1.536-0.386
		c1.15,2.256-1.179,4.012-1.836,5.806c-1.359,3.186-3.622,7.18-2.331,11.181c6.453,7.816,12.294-4.422,18.58-5.552
		c-0.921,2.909-0.167,5.849,1.495,7.981c1.068,1.446,2.935,2.197,4.474,1.809c6.188-1.156,12.022-5.282,17.34-10.586
		c-0.218,2.169-0.247,4.386,0.864,6.243c1.604,2.509,4.914,3.491,7.209,2.644c14.487-7.917,29.025-16.208,43.391-25.334
		c2.388-2.134,5.651-2.863,7.138-6.274C295.799,247.299,295.771,245.462,294.777,244.155z M229.837,267.735
		c-1.742,1.12-3.655,2.722-5.41,1.222c-0.687-1.355,0.275-2.547,0.803-3.457c6.488-7.231,14.271-13.207,21.741-17.699
		C242.651,255.722,236.487,262.119,229.837,267.735z"/>
	<g>
		<polygon fill="#1E5AAF" points="100.046,290.113 127.75,290.113 127.75,297.402 119.001,297.402 119.001,336.771 110.253,336.771 
			110.253,297.402 100.046,297.402 		"/>
		<polygon fill="#1E5AAF" points="336.256,297.402 336.256,290.113 311.47,290.113 311.47,336.771 336.256,336.771 336.256,329.479 
			320.217,329.479 320.217,316.358 336.256,316.358 336.256,309.066 320.217,309.066 320.217,297.402 		"/>
		<polygon fill="#1E5AAF" points="369.792,290.113 361.045,290.113 361.045,336.771 385.833,336.771 385.833,329.479 
			369.792,329.479 		"/>
		<path fill="#1E5AAF" d="M180.242,304.693c0-14.58-14.582-14.58-14.582-14.58h-17.498v46.657h8.749v-20.412l13.123,20.412h10.208
			l-12.351-18.517C171.974,317.816,180.242,315.673,180.242,304.693z M165.661,297.402c0,0,5.832,0,5.832,7.291
			c0,7.29-5.832,8.747-5.832,8.747h-8.749v-16.038H165.661z"/>
		<path fill="#1E5AAF" d="M196.28,336.771l18.955-46.657h5.832l18.957,46.657h-8.75l-2.913-8.747h-18.957l-4.375,8.747H196.28z
			 M223.62,319.273l-5.467-14.58l-5.834,14.58H223.62z"/>
	</g>
	<g>
		<g>
			<defs>
				<path id="SVGID_5_" d="M189.006,219.346c-0.485,0.21-0.99,0.451-1.51,0.715c0.098-0.746-0.402-1.447-1.153-1.585
					c-0.77-0.142-1.51,0.369-1.654,1.142c-0.119,0.65,0.228,1.279,0.801,1.544c-0.511,0.301-1.036,0.624-1.57,0.962
					c-0.132-0.522-0.558-0.945-1.122-1.049c-0.771-0.142-1.511,0.369-1.652,1.141c-0.101,0.545,0.126,1.074,0.54,1.389
					c-0.378,0.259-0.757,0.527-1.141,0.8c0.019-0.686-0.468-1.302-1.163-1.431c-0.772-0.141-1.512,0.369-1.654,1.141
					c-0.133,0.724,0.309,1.421,1.002,1.621c-11.065,9.294-24.809,22.822-28.528,28.347c-3.106,3.786,0.02,4.805,1.89,2.184
					c4.844-6.792,17.399-20.232,27.842-29.163c0.178,0.434,0.566,0.77,1.059,0.861c0.771,0.142,1.513-0.37,1.654-1.14
					c0.108-0.589-0.163-1.158-0.639-1.459c0.359-0.296,0.718-0.587,1.07-0.87c-0.072,0.727,0.424,1.402,1.157,1.536
					c0.771,0.142,1.512-0.369,1.653-1.141c0.143-0.771-0.369-1.512-1.141-1.653c-0.017-0.003-0.035-0.005-0.052-0.009
					c0.692-0.53,1.363-1.027,2.013-1.488c-0.061,0.119-0.106,0.249-0.132,0.388c-0.144,0.773,0.369,1.512,1.139,1.653
					c0.772,0.143,1.513-0.369,1.654-1.14c0.142-0.772-0.369-1.512-1.141-1.654c-0.14-0.025-0.279-0.029-0.413-0.015
					c0.529-0.356,1.039-0.685,1.524-0.979c0.202,0.223,0.478,0.383,0.795,0.442c0.771,0.141,1.515-0.369,1.654-1.14
					c0.142-0.772-0.367-1.512-1.142-1.654c-0.771-0.141-1.51,0.369-1.653,1.142C188.961,218.976,188.965,219.166,189.006,219.346
					L189.006,219.346z M151.041,260.518c-1.58,4.25-2.402,9.271-2.623,12.972c-1.409,23.495,38.906,9.802,23.572-5.65
					c-3.976-4.007-11.272-6.677-19.399-7.712c3.344,2.602,13.581,10.464,8.323,14.214
					C154.434,278.965,151.51,263.579,151.041,260.518L151.041,260.518z M146.698,252.07c-1.542-4.781-3.418-8.915-5.627-12.402
					c-3.423-5.404-7.742-9.205-14.63-6.295c-9.478,4.003-12.355,20.403-1.581,24.576c6.076,2.354,13.404,0.629,21.053-3.695
					c-2.192-0.174-9.896-0.32-13.893-2.478c-1.815-0.98-2.866-2.375-2.283-4.377c0.742-2.543,3.093-2.743,4.863-1.253
					C138.415,249.356,142.605,250.769,146.698,252.07L146.698,252.07z M146.6,260.492c0.263,6.658,1.785,12.459-1.891,18.569
					c-4.433,7.364-15.884,6.669-20.182,0.742c-6.476-8.932-1.28-18.82,7.407-19.25c3.958-0.196,8.431-0.729,13.517-1.381
					c-2.741,3.181-5.746,5.892-9.373,7.888c-5.833,3.211-2.766,9.167,2.255,7.113C142.403,272.508,145.318,263.736,146.6,260.492
					L146.6,260.492z M148.1,248.89c-3.583-5.618-7.825-9.86-7.73-16.99c0.114-8.593,10.354-13.769,17.054-10.817
					c10.096,4.448,10.594,15.607,3.31,20.358c-3.317,2.165-6.913,4.881-10.976,8.008c0.763-4.129,1.99-7.985,4.116-11.538
					c3.418-5.715-2.234-9.311-5.534-5.006C145.665,236.396,147.571,245.441,148.1,248.89L148.1,248.89z M157.35,256.978
					c3.913,2.932,7.728,5.163,11.444,6.693c5.757,2.371,11.325,2.962,15.164-3.222c5.9-9.508-2.896-24.498-14.631-19.741
					c-5.151,2.087-9.202,6.89-12.43,13.733c2.678-1.573,5.38-3.015,8.155-4.046c2.455-0.912,8.845-2.935,8.54,1.76
					c-0.094,1.463-1.479,2.903-4.56,2.99C165.131,255.026,161.238,255.682,157.35,256.978L157.35,256.978z"/>
			</defs>
			<clipPath id="SVGID_6_">
				<use xlink:href="#SVGID_5_"  overflow="visible"/>
			</clipPath>
			<g clip-path="url(#SVGID_6_)">
				<defs>
					
						<rect id="SVGID_7_" x="118.519" y="214.43" transform="matrix(0.1908 0.9816 -0.9816 0.1908 378.2332 53.1674)" width="76.697" height="83.145"/>
				</defs>
				<clipPath id="SVGID_8_">
					<use xlink:href="#SVGID_7_"  overflow="visible"/>
				</clipPath>
				<g transform="matrix(1 1.490116e-08 -1.490116e-08 1 0 -3.051758e-05)" clip-path="url(#SVGID_8_)">
					
						<image overflow="visible" width="460" height="421" xlink:href="440483CC.jpg"  transform="matrix(0.1805 -0.0351 -0.0351 -0.1805 122.9878 302.1543)">
					</image>
				</g>
				<use xlink:href="#SVGID_7_"  overflow="visible" fill="none" stroke="#5C2517" stroke-width="0.75"/>
			</g>
			
				<use xlink:href="#SVGID_5_"  overflow="visible" fill-rule="evenodd" clip-rule="evenodd" fill="none" stroke="#5C2517" stroke-width="0.75"/>
		</g>
	</g>
	<g>
		<g>
			<path fill="#5C2517" d="M278.358,329.635c-0.029-0.019-0.033-0.032-0.057-0.039c0.032-0.323-0.108-0.634-0.144-0.964
				c-0.214-1.697-1.65-3.366-3.132-4.525c0.012-0.033,0.023-0.064,0.018-0.077c0.239-0.899-0.283-1.858-0.526-2.637
				c-0.354-1.069-0.597-2.072-1.484-2.906c-0.005-0.012-0.03-0.019-0.052-0.025c0.314-0.424,0.165-0.903-0.05-1.591
				c-0.506-1.633-1.37-3.126-2.858-4.298c0.029-0.123,0.047-0.285,0.011-0.474c-0.154-1.002-0.729-2.132-1.365-2.957
				c-0.48-0.604-1.02-1.175-1.459-1.805c-0.159-0.222-0.213-0.462-0.386-0.662c0.541-0.283,0.766-0.637,0.427-1.298
				c-0.748-1.472-1.399-3.273-2.791-4.435c-0.022-0.005-0.048-0.013-0.052-0.025c0.071-0.135,0.087-0.297,0.047-0.499
				c-0.237-0.977-1.258-1.953-1.933-2.752c-0.424-0.507-0.873-1.008-1.436-1.444c0.141-0.128,0.229-0.271,0.209-0.419
				c-0.082-0.829-1.036-1.669-1.708-2.242c-0.737-0.637-1.637-1.152-2.432-1.757c0.636-0.482,0.432-0.932-0.07-1.528
				c-0.624-0.787-1.655-1.361-2.488-2.025c0.054-0.032,0.132-0.07,0.195-0.09c0.178-0.07,0.266-0.225,0.295-0.348
				c0.164-0.774-0.537-1.51-1.029-2.082c-0.282-0.338-0.933-0.941-1.251-1.145c-0.32-0.205-1.159-0.829-2.031-0.557
				c-1.596,0.496-4.617,1.921-4.001,3.186c0.25,0.516,0.732,1.165,0.962,1.489c0.229,0.323,0.496,0.656,0.796,0.975
				c0.233,0.239,0.537,0.856,1.171,0.729c0.128-0.024,0.229-0.056,0.353-0.095c0.09,1.237,0.591,2.986,1.8,3.705
				c0.217,0.117,0.429,0.149,0.642,0.113c0.214,1.767,0.979,3.518,2.369,4.806c0.122,0.104,0.299,0.175,0.542,0.087
				c0.02-0.007,0.041-0.013,0.061-0.019c0.35,0.985,0.805,1.938,1.153,2.923c0.207,0.59,0.311,1.565,1.134,1.835
				c0.077,0.035,0.188,0.028,0.294,0.011c0.38,1.657,0.628,3.398,1.698,4.813c0.187,0.239,0.376,0.424,0.881,0.309
				c0.086-0.012,0.164-0.051,0.246-0.077c0.135,2.105,0.399,4.538,1.804,6.176c0.105,0.124,0.298,0.165,0.532,0.118
				c0.019-0.005,0.019-0.005,0.04-0.012c-0.026,2.012,0.505,4.078,1.681,5.703c0.114,0.148,0.359,0.214,0.675,0.216
				c-0.206,1.143,0.042,2.23,0.232,3.28c0.165,0.815,0.282,1.986,1.01,2.599c0.218,0.188,0.58,0.203,0.979,0.122
				c-0.455,1.861,0.22,3.813,0.826,5.4c0.105,0.264,0.312,0.569,0.711,0.631c-1.036,2.367-1.922,4.789-0.979,6.883
				c0.053,0.098,0.254,0.162,0.404,0.146c1.667-0.263,3.452-0.874,5.098-1.357c1.332-0.398,2.634-0.903,3.988-1.311
				c0.653-0.202,1.768-0.293,2.339-0.697c1.123-0.789,0.109-2.181-0.015-2.937C279.998,332.237,279.497,330.845,278.358,329.635z"/>
			<path fill="#DB734C" d="M251.161,284.594c-0.538,0.105-3.731,1.491-3.441,2.183c0.286,0.693,1.53,2.155,1.985,2.681
				c0.312,0.357,1.045-0.098,1.436-0.29c0.855-0.421,1.753-0.855,2.578-1.298c0.616-0.333,0.515-0.146,0.298-0.561
				c-0.232-0.468-0.494-0.942-0.925-1.319C252.781,285.718,251.698,284.491,251.161,284.594z"/>
			<path fill="#DB734C" d="M270.012,326.231c-0.281,0.102-0.654,0.275-1.074,0.448c-0.475,1.639,0.076,3.271,0.523,4.71
				c0.313,1.011,1.174,0.674,2.563,0.242c0.841-0.262,1.729-0.496,2.557-0.794c1.13-0.409,2.741-0.641,2.603-1.59
				c-0.085-0.642-0.382-1.161-0.69-1.72c-0.612-1.102-1.253-2.082-2.348-2.936C272.779,325.173,271.403,325.728,270.012,326.231z"/>
			<path fill="#DB734C" d="M262.945,301.685c-1.325,0.569-2.614,1.04-3.884,1.649c0.297,1.383,0.468,2.88,1.216,4.125
				c0.133,0.215,0.257,0.46,0.43,0.662c0.782-0.371,1.555-0.695,2.394-0.957c0.327-0.102,3.429-1.022,3.367-1.145
				c-0.227-0.512-0.529-0.986-0.816-1.479c-0.575-1.058-1.024-2.284-2.03-3.135C263.426,301.494,263.185,301.583,262.945,301.685z"
				/>
			<path fill="#DB734C" d="M268.841,313.366c-1.506,0.568-2.979,1.097-4.517,1.488c-0.029,1.416,0.286,2.796,0.833,4.062
				c0.229,0.511,0.229,1.448,1.133,1.253c0.815-0.182,1.623-0.405,2.417-0.665c1.142-0.37,2.467-0.725,3.509-1.261
				c0.115-0.065-0.51-1.718-0.588-1.894c-0.504-1.192-1.197-2.27-2.325-3.156C269.201,313.227,269.021,313.298,268.841,313.366z"/>
			<path fill="#DB734C" d="M256.258,292.281c-0.942,0.436-1.847,0.916-2.729,1.402c0.128,1.638,0.842,3.292,2.062,4.545
				c0.465-0.243,0.869-0.596,1.344-0.801c0.477-0.204,0.926-0.415,1.397-0.632c0.567-0.261,1.133-0.537,1.701-0.801
				c0.551-0.255-0.034-0.556-0.175-0.71c-0.862-1.184-2.213-2-3.43-2.957C256.365,292.334,256.31,292.308,256.258,292.281z"/>
			<path fill="#BA4C34" d="M265.885,307.024L265.885,307.024c-0.247,0.077-0.512,0.16-0.8,0.248
				c-0.96,0.299-1.975,0.572-2.908,0.961c-0.097,0.044-0.175,0.081-0.274,0.126c0.108,1.359,0.441,2.648,0.718,3.97
				c0.131,0.642,0.323,1.265,0.719,1.809c0.365,0.526,3.07-0.584,3.651-0.808c0.541-0.21,1.063-0.401,1.607-0.599
				c0.577-0.094,0.698-0.288,0.375-0.6c-0.226-0.654-0.476-1.316-0.782-1.945c-0.397-0.771-1.126-1.384-1.638-2.091
				C266.351,307.804,266.213,307.22,265.885,307.024z"/>
			<path fill="#BA4C34" d="M272.188,319.02c-0.175,0.082-0.397,0.166-0.658,0.262c-0.752,0.247-3.192,1.275-4.896,1.635
				c-0.302,1.628,0.225,3.254,0.717,4.693c0.307,0.844,0.307,0.771,1.799,0.223c0.661-0.248,1.327-0.482,1.966-0.738
				c0.982-0.377,1.956-0.778,2.909-1.175c0.134-1.021-0.532-2.15-0.793-3.063C273.083,320.163,272.735,319.546,272.188,319.02z"/>
			<path fill="#BA4C34" d="M251.105,289.988c0.084,0.927,0.376,1.944,0.971,2.698c0.143,0.168,0.39,0.816,0.86,0.528
				c0.604-0.358,1.205-0.673,1.865-0.992c0.644-0.314,2.037-0.817,1.602-1.35c-0.296-0.377-0.697-0.649-1.085-0.957
				c-0.529-0.403-1.085-0.827-1.598-1.25C252.853,289.119,251.998,289.627,251.105,289.988z"/>
			<path fill="#BA4C34" d="M260.197,296.729c-0.395,0.179-0.8,0.317-1.032,0.433c-0.922,0.43-1.899,0.817-2.725,1.345
				c0.437,1.327,0.817,2.845,1.574,4.059c0.265,0.416-0.223,0.581,0.579,0.203c0.216-0.111,0.427-0.217,0.644-0.315
				c0.829-0.37,1.679-0.805,2.555-1.091s1.88-0.442,1.432-1.098c-0.361-0.514-0.703-1.033-1.081-1.526
				c-0.523-0.676-1.068-1.416-1.82-1.963C260.294,296.755,260.243,296.741,260.197,296.729z"/>
			<path fill="#BA4C34" d="M270.451,332.845c-0.843,1.839-1.772,3.976-1.408,5.725c0.195,0.976-0.075,0.761,1.048,0.483
				c0.626-0.152,1.228-0.312,1.849-0.475c1.239-0.344,2.455-0.693,3.67-1.113c1.215-0.419,2.476-0.697,3.67-1.11
				c0.748-0.262,0.1-1.48,0.061-1.823c-0.249-1.529-0.61-2.908-1.62-4.142c-0.638,0.409-1.623,0.631-2.269,0.859
				C273.802,331.861,272.114,332.355,270.451,332.845z"/>
		</g>
		<g>
			<path fill="#5C2517" d="M272.332,272.117c-4.545-3.607-11.718-2.363-16.685-0.545c0.039-0.701-0.154-1.448-0.284-2.116
				c-0.208-1.116-0.232-2.27-0.496-3.37c-0.063-0.274-0.434-0.455-0.678-0.281c-2.967,2.043-5.516,3.721-7.114,7.131
				c-0.579,1.243-1,2.988-0.887,4.37c0.074,1.06,0.773,4.012,1.016,4.409c-3.439-2.199-7.878-2.867-11.69-1.644
				c-2.682,0.873-5.272,2.484-7.222,4.508c-2.098,2.186-2.399,4.444-2.489,7.327c-0.007,0.357,0.422,0.598,0.718,0.407
				c1.409-0.852,2.678-1.58,4.195-2.15c-0.537,1.446-0.752,3.03-0.695,4.548c0.073,1.689,0.938,6.44,2.899,7.052
				c0.261,0.077,0.471-0.008,0.611-0.249c1.04-1.978,3.877-6.027,4.252-6.341c-0.63,5.511,3.593,10.616,8.31,12.872
				c0.395,0.192,0.724-0.205,0.63-0.57c-1.043-4.243-0.744-8.922,0.177-13.184c0.334-1.58,1.157-3.506,1.431-4.324
				c0.066-0.198,1.677-3.158,2.043-4.196c0.42-0.065,1.8-0.539,2.04-0.596c1.338-0.311,4.396-0.734,6.73-0.889
				c4.358-0.292,7.675,0.942,10.897,3.837c0.305,0.281,0.81-0.055,0.729-0.442c-1.045-4.755-3.399-8.529-7.581-10.144
				c1.649-1.28,3.023-2.495,5.072-3.25c1.199-0.451,3.069-0.579,4.071-1.343C272.635,272.712,272.624,272.361,272.332,272.117z"/>
			<path fill="#85C441" d="M256.4,272.283c-2.679,1.01-4.784,2.215-6.25,4.718c-0.938,1.61-1.518,3.739-0.997,5.604
				c0.124-0.806,0.508-1.536,1.033-2.191c1.593-2.916,4.607-4.876,7.765-6.055c2.367-0.872,4.518-1.421,7.014-1.626
				c1.863-0.146,3.815-0.202,5.639-0.669C266.451,269.85,260.487,270.738,256.4,272.283z"/>
			<path fill="#85C441" d="M252.028,279.882c-0.618,0.546-1.074,1.042-1.426,1.683c-0.144,0.36-0.265,0.732-0.38,1.122
				c-0.014,0.142-0.006,0.297,0.021,0.446c1.576-2.34,6.703-2.436,8.813-2.423c2.324,0.007,4.526,0.503,6.56,1.663
				c1.682,0.975,2.633,2.392,3.853,3.843c-1.321-4.313-4.32-8.52-9.236-8.567C257.609,277.636,254.104,278.075,252.028,279.882z"/>
			<path fill="#85C441" d="M248.94,274.758c1.342-2.463,3.021-4.659,4.273-7.154c-2.575,1.784-4.771,3.588-5.695,6.946
				c-0.495,1.769-0.662,4.143,0.108,5.991C247.455,278.527,247.879,276.722,248.94,274.758z"/>
			<path fill="#85C441" d="M243.685,281.411c0.771,0.075,1.438,0.262,2.089,0.514c-3.065-1.628-6.858-2.181-9.909-0.977
				c-2.279,0.904-4.697,1.991-6.418,3.804c-1.816,1.883-2.415,3.565-2.611,5.85c2.472-3.07,5.249-6.04,8.903-7.647
				C238.229,281.846,240.926,281.145,243.685,281.411z"/>
			<path fill="#85C441" d="M241.627,299.117c-0.484-2.447-0.037-4.556,0.877-6.807c1.045-2.591,2.243-5.009,4.549-6.71
				c0.128-0.099,0.254-0.197,0.417-0.307c-4.298,0.803-7.992,4.944-8.642,9.062c-0.713,4.672,1.704,8.842,5.354,11.468
				c-0.469-0.682-0.931-1.345-1.234-2.136C242.348,302.199,241.932,300.675,241.627,299.117z"/>
			<path fill="#85C441" d="M235.65,288.69c3.188-2.979,7.154-4.724,11.439-4.617c-1.552-0.561-3.093-0.83-4.971-0.542
				c-3.079,0.484-6.351,1.481-8.511,3.845c-1.957,2.123-3.118,5.102-2.549,8.017c0.146,0.722,0.461,2.75,1.088,4.13
				C231.788,295.521,232.426,291.68,235.65,288.69z"/>
			<path fill="#39B54A" d="M261.507,281.819c-1.7-0.279-3.579-0.246-5.3-0.145c-1.566,0.093-5.237,0.819-5.455,2.974
				c3.128-1.148,6.174-1.169,9.52-1.422c2.365-0.183,4.506,0.372,6.489,1.37C265.331,283.229,263.777,282.215,261.507,281.819z"/>
			<path fill="#39B54A" d="M260.387,274.471c-2.547,0.929-5.262,2.008-7.296,3.762c2.361-1.206,5.263-1.753,7.167-1.518
				c0.717,0.092,1.369,0.224,2.019,0.416c0.024-0.107,0.075-0.201,0.167-0.288c1.395-1.083,2.567-2.314,4.217-3.023
				c0.264-0.101,0.522-0.221,0.787-0.322C265.041,273.675,262.614,273.66,260.387,274.471z"/>
			<path fill="#39B54A" d="M248.911,277.386c1.255-2.358,3.531-4.346,5.76-5.412c0.006-0.042-0.011-0.095,0.014-0.142
				c0.276-0.952-0.253-2.46-0.387-3.462c-0.037-0.244-0.061-0.513-0.104-0.775C252.546,270.902,249.886,273.933,248.911,277.386z"/>
			<path fill="#39B54A" d="M237.93,293.809c-0.02-0.189,0.072-0.338,0.205-0.417c1.005-3.483,3.528-6.767,6.858-8.273
				c-3.708,0.482-7.384,2.275-9.568,5.315c-2.35,3.269-2.69,5.914-2.312,9.733c0.567-1.278,1.059-2.612,1.985-3.687
				C235.269,296.269,237.916,293.636,237.93,293.809z"/>
			<path fill="#39B54A" d="M231.233,288.98c0.334-0.637,0.757-1.24,1.237-1.783c2.074-2.258,4.789-3.654,7.801-4.293
				c0.907-0.184,2-0.465,3.054-0.556c-0.609-0.066-1.241-0.067-1.908,0.002c-2.133,0.229-4.036,0.821-5.98,1.72
				c-2.815,1.268-4.928,3.657-6.932,6.012c0.817-0.411,1.646-0.787,2.65-1.099C231.174,288.979,231.198,288.991,231.233,288.98z"/>
			<path fill="#39B54A" d="M249.576,285.23c-0.006-0.018-0.03-0.029-0.03-0.029l-0.005-0.019c-0.534,0.501-2.58,1.706-3.169,2.341
				c-1.776,1.892-3.072,4.499-3.711,7.001c-0.681,2.691-0.111,5.604,0.879,8.152c0.496,1.282,1.271,2.32,1.955,3.447
				c-0.539-3.198-0.424-6.502,0.047-9.74c0.522-3.508,1.616-6.328,3.232-9.428C249.069,286.391,249.278,285.795,249.576,285.23z"/>
		</g>
	</g>
	<g>
		<g>
			<path fill="#5C2517" d="M268.547,329.6c0.037-0.023,0.042-0.042,0.072-0.05c-0.042-0.41,0.137-0.805,0.182-1.223
				c0.271-2.153,2.094-4.271,3.974-5.741c-0.015-0.042-0.03-0.082-0.023-0.098c-0.303-1.142,0.36-2.357,0.669-3.346
				c0.448-1.356,0.757-2.629,1.883-3.688c0.006-0.014,0.038-0.023,0.065-0.031c-0.399-0.538-0.209-1.146,0.062-2.019
				c0.643-2.071,1.739-3.966,3.628-5.453c-0.038-0.155-0.061-0.361-0.015-0.601c0.196-1.271,0.926-2.705,1.732-3.751
				c0.61-0.767,1.293-1.491,1.852-2.29c0.201-0.28,0.27-0.586,0.489-0.84c-0.687-0.359-0.972-0.808-0.542-1.646
				c0.949-1.867,1.775-4.152,3.541-5.626c0.028-0.007,0.061-0.016,0.065-0.032c-0.091-0.171-0.11-0.377-0.06-0.634
				c0.302-1.238,1.597-2.477,2.452-3.49c0.537-0.644,1.107-1.279,1.821-1.833c-0.179-0.162-0.291-0.343-0.266-0.531
				c0.104-1.052,1.314-2.118,2.167-2.845c0.936-0.808,2.077-1.462,3.085-2.229c-0.807-0.612-0.548-1.182,0.089-1.939
				c0.793-0.999,2.101-1.727,3.157-2.569c-0.067-0.04-0.167-0.088-0.248-0.114c-0.226-0.088-0.336-0.285-0.374-0.441
				c-0.208-0.982,0.682-1.915,1.307-2.641c0.357-0.429,1.183-1.194,1.587-1.453c0.406-0.26,1.471-1.051,2.576-0.706
				c2.025,0.629,5.858,2.438,5.076,4.042c-0.316,0.654-0.929,1.478-1.221,1.889c-0.29,0.41-0.63,0.833-1.01,1.236
				c-0.296,0.304-0.681,1.087-1.484,0.926c-0.163-0.031-0.291-0.07-0.448-0.12c-0.114,1.569-0.749,3.789-2.283,4.7
				c-0.275,0.148-0.544,0.189-0.814,0.144c-0.271,2.241-1.242,4.462-3.005,6.096c-0.154,0.134-0.379,0.223-0.688,0.111
				c-0.025-0.009-0.053-0.017-0.077-0.024c-0.443,1.251-1.021,2.458-1.463,3.708c-0.263,0.749-0.394,1.986-1.439,2.328
				c-0.097,0.045-0.238,0.036-0.371,0.014c-0.482,2.103-0.798,4.312-2.155,6.107c-0.237,0.303-0.478,0.537-1.117,0.391
				c-0.109-0.015-0.208-0.064-0.312-0.098c-0.171,2.672-0.507,5.758-2.289,7.835c-0.133,0.158-0.378,0.209-0.675,0.149
				c-0.023-0.006-0.023-0.006-0.051-0.014c0.033,2.552-0.641,5.174-2.132,7.234c-0.146,0.188-0.456,0.271-0.856,0.274
				c0.262,1.449-0.054,2.829-0.295,4.162c-0.209,1.034-0.357,2.519-1.28,3.296c-0.276,0.24-0.736,0.258-1.243,0.155
				c0.577,2.361-0.278,4.838-1.048,6.852c-0.135,0.334-0.396,0.722-0.901,0.8c1.313,3.003,2.438,6.076,1.242,8.731
				c-0.067,0.124-0.322,0.206-0.514,0.186c-2.115-0.334-4.379-1.109-6.467-1.723c-1.69-0.506-3.342-1.146-5.061-1.662
				c-0.828-0.257-2.242-0.372-2.967-0.885c-1.424-1.002-0.139-2.767,0.02-3.726C266.467,332.901,267.103,331.134,268.547,329.6z"/>
			<path fill="#DB734C" d="M300.602,274.229c-0.547,0.478-0.878,1.08-1.173,1.674c-0.275,0.526-0.404,0.29,0.378,0.711
				c1.046,0.561,2.186,1.112,3.27,1.646c0.497,0.244,1.426,0.821,1.822,0.368c0.577-0.667,2.156-2.522,2.519-3.401
				c0.368-0.878-3.684-2.635-4.365-2.769C302.37,272.328,300.995,273.883,300.602,274.229z"/>
			<path fill="#DB734C" d="M273.892,323.202c-1.389,1.083-2.202,2.327-2.979,3.725c-0.392,0.709-0.768,1.367-0.876,2.182
				c-0.176,1.205,1.868,1.498,3.302,2.018c1.049,0.378,2.177,0.675,3.243,1.007c1.764,0.548,2.855,0.976,3.253-0.308
				c0.567-1.825,1.267-3.896,0.664-5.976c-0.533-0.219-1.006-0.439-1.363-0.567C277.371,324.643,275.625,323.938,273.892,323.202z"
				/>
			<path fill="#DB734C" d="M287.243,293.786c-1.275,1.078-1.846,2.634-2.575,3.977c-0.364,0.626-0.748,1.228-1.035,1.876
				c-0.079,0.156,3.856,1.323,4.271,1.453c1.063,0.331,2.044,0.743,3.036,1.214c0.219-0.257,0.377-0.567,0.546-0.84
				c0.949-1.58,1.165-3.479,1.542-5.233c-1.611-0.773-3.246-1.37-4.928-2.093C287.797,294.012,287.491,293.898,287.243,293.786z"/>
			<path fill="#DB734C" d="M280.036,308.742c-1.432,1.125-2.312,2.491-2.95,4.004c-0.099,0.224-0.893,2.319-0.746,2.401
				c1.322,0.681,3.003,1.131,4.451,1.601c1.008,0.33,2.031,0.612,3.066,0.843c1.146,0.248,1.147-0.94,1.437-1.589
				c0.694-1.607,1.095-3.357,1.058-5.154c-1.95-0.496-3.82-1.167-5.73-1.888C280.393,308.873,280.164,308.782,280.036,308.742z"/>
			<path fill="#DB734C" d="M296.367,282.27c-1.544,1.215-3.258,2.25-4.352,3.752c-0.178,0.195-0.92,0.577-0.222,0.901
				c0.721,0.334,1.438,0.685,2.158,1.016c0.599,0.275,1.169,0.542,1.773,0.801c0.602,0.261,1.115,0.708,1.704,1.016
				c1.549-1.589,2.455-3.688,2.617-5.765c-1.119-0.617-2.267-1.227-3.462-1.779C296.52,282.244,296.448,282.277,296.367,282.27z"/>
			<path fill="#BA4C34" d="M283.524,302.273c-0.649,0.896-1.574,1.675-2.077,2.652c-0.39,0.798-0.707,1.638-0.993,2.469
				c-0.41,0.395-0.257,0.641,0.477,0.76c0.689,0.251,1.353,0.494,2.038,0.76c0.737,0.284,4.169,1.692,4.633,1.024
				c0.502-0.69,0.745-1.48,0.911-2.294c0.351-1.677,0.773-3.312,0.911-5.036c-0.127-0.057-0.226-0.104-0.348-0.16
				c-1.185-0.493-2.472-0.84-3.689-1.219c-0.365-0.111-0.702-0.218-1.016-0.314l0,0
				C283.956,301.162,283.781,301.903,283.524,302.273z"/>
			<path fill="#BA4C34" d="M275.051,318.462c-0.33,1.158-1.176,2.592-1.006,3.886c1.209,0.503,2.444,1.013,3.691,1.491
				c0.811,0.324,1.654,0.621,2.493,0.936c1.894,0.696,1.894,0.789,2.283-0.282c0.623-1.826,1.292-3.889,0.908-5.954
				c-2.161-0.456-5.258-1.761-6.212-2.074c-0.33-0.121-0.612-0.228-0.835-0.331C275.681,316.8,275.239,317.583,275.051,318.462z"/>
			<path fill="#BA4C34" d="M299.804,277.624c-0.65,0.537-1.354,1.075-2.027,1.586c-0.491,0.39-1.001,0.736-1.376,1.214
				c-0.553,0.675,1.216,1.313,2.032,1.712c0.837,0.405,1.6,0.804,2.365,1.258c0.598,0.366,0.911-0.457,1.092-0.67
				c0.755-0.957,1.125-2.248,1.231-3.423C301.989,278.843,300.905,278.199,299.804,277.624z"/>
			<path fill="#BA4C34" d="M291.429,287.911c-0.954,0.694-1.646,1.632-2.31,2.49c-0.479,0.626-0.912,1.285-1.371,1.938
				c-0.568,0.83,0.704,1.028,1.816,1.392c1.11,0.364,2.188,0.915,3.24,1.384c0.275,0.125,0.543,0.26,0.817,0.4
				c1.017,0.48,0.398,0.27,0.733-0.258c0.961-1.54,1.444-3.465,1.998-5.148c-1.048-0.669-2.287-1.161-3.456-1.707
				c-0.296-0.146-0.811-0.322-1.311-0.549C291.529,287.868,291.465,287.886,291.429,287.911z"/>
			<path fill="#BA4C34" d="M272.234,331.647c-0.818-0.29-2.068-0.571-2.878-1.091c-1.28,1.565-1.738,3.314-2.055,5.255
				c-0.05,0.435-0.872,1.981,0.077,2.312c1.515,0.524,3.114,0.878,4.655,1.409c1.542,0.533,3.084,0.976,4.656,1.412
				c0.788,0.206,1.551,0.408,2.346,0.602c1.424,0.353,1.081,0.625,1.329-0.612c0.462-2.219-0.718-4.931-1.787-7.264
				C276.469,333.051,274.327,332.424,272.234,331.647z"/>
		</g>
		<g>
			<path fill="#5C2517" d="M276.192,256.629c5.766-4.577,14.866-2.998,21.167-0.691c-0.05-0.889,0.196-1.836,0.36-2.685
				c0.264-1.417,0.296-2.88,0.629-4.276c0.081-0.348,0.551-0.577,0.86-0.356c3.764,2.592,6.997,4.721,9.026,9.047
				c0.733,1.577,1.268,3.791,1.124,5.544c-0.094,1.344-0.98,5.09-1.288,5.593c4.363-2.79,9.995-3.638,14.831-2.085
				c3.402,1.107,6.688,3.151,9.162,5.719c2.661,2.772,3.044,5.638,3.158,9.295c0.008,0.454-0.536,0.759-0.911,0.517
				c-1.788-1.081-3.397-2.005-5.322-2.729c0.682,1.835,0.953,3.844,0.882,5.77c-0.093,2.144-1.189,8.171-3.679,8.947
				c-0.33,0.098-0.597-0.011-0.775-0.315c-1.319-2.51-4.918-7.647-5.394-8.045c0.799,6.991-4.559,13.468-10.543,16.33
				c-0.5,0.244-0.918-0.26-0.799-0.723c1.323-5.385,0.944-11.319-0.224-16.727c-0.424-2.004-1.468-4.448-1.815-5.486
				c-0.084-0.251-2.127-4.006-2.592-5.323c-0.532-0.083-2.283-0.684-2.589-0.757c-1.697-0.395-5.577-0.931-8.537-1.127
				c-5.53-0.371-9.737,1.195-13.826,4.868c-0.386,0.357-1.027-0.069-0.925-0.561c1.325-6.032,4.312-10.821,9.617-12.87
				c-2.093-1.623-3.835-3.165-6.436-4.123c-1.521-0.572-3.894-0.734-5.164-1.705C275.809,257.384,275.822,256.938,276.192,256.629z"
				/>
			<path fill="#85C441" d="M278.385,256.562c2.313,0.593,4.79,0.664,7.154,0.849c3.166,0.26,5.895,0.957,8.897,2.063
				c4.005,1.495,7.83,3.982,9.852,7.681c0.666,0.831,1.153,1.757,1.31,2.779c0.661-2.366-0.073-5.067-1.265-7.11
				c-1.859-3.175-4.53-4.704-7.929-5.985C291.219,254.879,283.652,253.752,278.385,256.562z"/>
			<path fill="#85C441" d="M291.543,263.646c-6.237,0.06-10.041,5.397-11.719,10.869c1.548-1.841,2.755-3.639,4.888-4.875
				c2.58-1.471,5.374-2.101,8.322-2.109c2.677-0.017,9.183,0.105,11.182,3.074c0.033-0.189,0.044-0.385,0.025-0.565
				c-0.146-0.495-0.299-0.967-0.481-1.423c-0.446-0.814-1.024-1.443-1.81-2.136C299.317,264.188,294.87,263.63,291.543,263.646z"/>
			<path fill="#85C441" d="M307.534,267.316c0.978-2.344,0.766-5.356,0.138-7.6c-1.174-4.26-3.958-6.55-7.226-8.813
				c1.59,3.166,3.72,5.952,5.423,9.077C307.215,262.471,307.753,264.761,307.534,267.316z"/>
			<path fill="#85C441" d="M322.617,270.378c4.637,2.039,8.159,5.806,11.295,9.702c-0.248-2.899-1.008-5.033-3.312-7.422
				c-2.184-2.3-5.25-3.679-8.143-4.827c-3.869-1.527-8.683-0.826-12.571,1.24c0.825-0.32,1.672-0.556,2.65-0.652
				C316.036,268.083,319.458,268.972,322.617,270.378z"/>
			<path fill="#85C441" d="M313.472,296.682c-0.386,1.003-0.972,1.845-1.566,2.709c4.63-3.331,7.696-8.622,6.793-14.549
				c-0.824-5.223-5.512-10.478-10.965-11.496c0.208,0.139,0.367,0.263,0.53,0.389c2.924,2.158,4.444,5.226,5.77,8.512
				c1.161,2.856,1.728,5.531,1.113,8.636C314.761,292.859,314.232,294.793,313.472,296.682z"/>
			<path fill="#85C441" d="M327.173,291.397c0.796-1.751,1.194-4.324,1.38-5.24c0.723-3.698-0.75-7.477-3.233-10.17
				c-2.741-2.999-6.891-4.263-10.798-4.877c-2.381-0.365-4.336-0.023-6.306,0.688c5.437-0.136,10.468,2.077,14.514,5.857
				C326.82,281.447,327.629,286.32,327.173,291.397z"/>
			<path fill="#39B54A" d="M283.261,272.46c2.516-1.266,5.232-1.969,8.232-1.738c4.244,0.321,8.109,0.347,12.077,1.804
				c-0.276-2.733-4.934-3.655-6.921-3.773c-2.184-0.129-4.567-0.17-6.724,0.184C287.045,269.44,285.074,270.727,283.261,272.46z"/>
			<path fill="#39B54A" d="M282.389,258.381c0.336,0.128,0.664,0.281,0.999,0.409c2.093,0.899,3.581,2.461,5.35,3.835
				c0.117,0.11,0.181,0.229,0.212,0.365c0.824-0.243,1.652-0.411,2.561-0.528c2.416-0.299,6.097,0.396,9.094,1.925
				c-2.581-2.226-6.025-3.595-9.257-4.773C288.521,258.586,285.441,258.605,282.389,258.381z"/>
			<path fill="#39B54A" d="M299.203,250.891c-0.055,0.333-0.084,0.674-0.132,0.984c-0.17,1.271-0.841,3.185-0.49,4.393
				c0.03,0.06,0.01,0.127,0.018,0.18c2.827,1.353,5.714,3.874,7.307,6.866C304.669,258.933,301.295,255.087,299.203,250.891z"/>
			<path fill="#39B54A" d="M323.429,287.538c1.176,1.363,1.8,3.055,2.52,4.677c0.479-4.846,0.048-8.202-2.933-12.349
				c-2.772-3.856-7.436-6.131-12.14-6.744c4.226,1.912,7.427,6.077,8.701,10.497c0.168,0.1,0.285,0.289,0.26,0.529
				C319.854,283.929,323.213,287.269,323.429,287.538z"/>
			<path fill="#39B54A" d="M328.432,278.027c1.273,0.396,2.326,0.873,3.362,1.394c-2.543-2.987-5.222-6.018-8.794-7.626
				c-2.467-1.141-4.882-1.891-7.587-2.182c-0.846-0.088-1.647-0.087-2.421-0.003c1.337,0.115,2.724,0.472,3.874,0.705
				c3.821,0.811,7.265,2.582,9.896,5.446c0.609,0.688,1.146,1.454,1.569,2.262C328.377,278.037,328.408,278.021,328.432,278.027z"/>
			<path fill="#39B54A" d="M306.079,275.454c2.05,3.933,3.438,7.511,4.101,11.961c0.597,4.108,0.743,8.3,0.059,12.357
				c0.868-1.431,1.853-2.748,2.481-4.374c1.256-3.231,1.978-6.928,1.114-10.342c-0.81-3.174-2.454-6.482-4.707-8.882
				c-0.747-0.806-3.343-2.335-4.021-2.97l-0.006,0.024c0,0-0.031,0.014-0.038,0.036C305.44,273.981,305.705,274.737,306.079,275.454
				z"/>
		</g>
	</g>
	<path fill="#FFC81E" d="M267.033,334.517c-1.632-1.019-6.774,5.459-7.163,8.408c-0.227,0.956,0.567,1.419,1.661,1.7
		s9.329,1.712,12.375,1.625c3.044-0.086,9.531-1.406,11.25-1.719s0.712-2.541,0.862-3.105c0.495-2.542-4.501-9.219-6.381-7.518
		C276.476,336.771,270.644,336.771,267.033,334.517z"/>
</g>
<g id="Layer_1" display="none">
	<title>megatravelogo</title>
	
		<radialGradient id="SVGID_9_" cx="255.9941" cy="-141.4766" r="61.48" gradientTransform="matrix(0.7408 0 0 -0.2222 -90 334.7119)" gradientUnits="userSpaceOnUse">
		<stop  offset="0" style="stop-color:#AFC8E1"/>
		<stop  offset="1" style="stop-color:#FFFFFF"/>
	</radialGradient>
	<ellipse display="inline" fill="url(#SVGID_9_)" cx="99.635" cy="366.152" rx="62.596" ry="15.186"/>
	<path display="inline" fill="#FF7D00" d="M51.114,300.594c0-40.914,29.846-74.079,66.67-74.079
		c21.616,0,40.825,11.431,53.003,29.15c-11.016-23.312-35.409-39.521-63.744-39.521c-38.661,0-70.003,30.179-70.003,67.411
		c0,18.223,9.282,38.24,21.482,50.373C76.3,350.226,51.114,311.216,51.114,300.594z"/>
	<circle display="inline" fill="#1F56A4" cx="152.23" cy="373.56" r="3.704"/>
	<path display="inline" fill="#FB7D03" d="M332.609,362.818c0,0-37.039-15.557-80.004-15.557s-76.567,11.986-89.634,18.52
		c-5.926,2.964-2.452,7.705,2.963,5.186c20.742-9.63,52.595-19.26,86.671-19.26C305.201,351.707,332.609,362.818,332.609,362.818z"
		/>
	<polygon display="inline" fill="#1E5AAF" points="170.379,319.113 184.454,319.113 184.454,322.816 180.009,322.816 
		180.009,342.817 175.564,342.817 175.564,322.816 170.379,322.816 	"/>
	<polygon display="inline" fill="#1E5AAF" points="290.385,322.816 290.385,319.113 277.792,319.113 277.792,342.817 
		290.385,342.817 290.385,339.113 282.236,339.113 282.236,332.447 290.385,332.447 290.385,328.742 282.236,328.742 
		282.236,322.816 	"/>
	<polygon display="inline" fill="#1E5AAF" points="307.423,319.113 302.979,319.113 302.979,342.817 315.572,342.817 
		315.572,339.113 307.423,339.113 	"/>
	<path display="inline" fill="#1E5AAF" d="M211.122,326.521c0-7.407-7.408-7.407-7.408-7.407h-8.89v23.704h4.445v-10.37l6.667,10.37
		h5.186l-6.274-9.407C206.922,333.188,211.122,332.099,211.122,326.521z M203.714,322.816c0,0,2.963,0,2.963,3.704
		s-2.963,4.444-2.963,4.444h-4.445v-8.148H203.714z"/>
	<path display="inline" fill="#1E5AAF" d="M219.271,342.817l9.63-23.704h2.963l9.631,23.704h-4.445l-1.48-4.444h-9.631l-2.223,4.444
		H219.271z M233.16,333.928l-2.777-7.407l-2.964,7.407H233.16z"/>
	<polygon display="inline" fill="#1E5AAF" points="269.644,319.113 260.014,342.817 257.051,342.817 247.42,319.113 
		251.865,319.113 258.531,335.41 265.199,319.113 	"/>
	<circle display="inline" fill="none" cx="339.402" cy="286.392" r="16.541"/>
	
		<linearGradient id="SVGID_10_" gradientUnits="userSpaceOnUse" x1="406.9932" y1="344.708" x2="406.9932" y2="269.708" gradientTransform="matrix(0.7408 0 0 -0.7408 -90 513.3507)">
		<stop  offset="0" style="stop-color:#FFBF80"/>
		<stop  offset="0" style="stop-color:#FFBF80"/>
		<stop  offset="0.34" style="stop-color:#FFA349"/>
		<stop  offset="0.63" style="stop-color:#FF8E21"/>
		<stop  offset="0.86" style="stop-color:#FF8209"/>
		<stop  offset="1" style="stop-color:#FF7D00"/>
	</linearGradient>
	<path display="inline" fill="url(#SVGID_10_)" d="M252.235,284.17c0-14.452-8.956-26.171-20.001-26.171
		c-7.467,0-13.971,5.356-17.409,13.29c-3.437-7.934-9.941-13.29-17.408-13.29c-5.875,0-11.156,3.311-14.815,8.593v-7.111H170.75
		v54.077h11.853v-28.89l0,0c0-0.044,0-0.082,0-0.126c0-7.704,5.141-13.949,11.482-13.949c6.341,0,11.482,6.245,11.482,13.949
		c0,0.044,0,0.082,0,0.126l0,0v28.89h11.852v-28.89l0,0c0-0.044,0-0.082,0-0.126c0-7.704,5.142-13.949,11.482-13.949
		c6.342,0,11.482,6.245,11.482,13.949c0,0.044,0,0.082,0,0.126l0,0v28.89h11.853v-28.89l0,0
		C252.221,284.503,252.235,284.34,252.235,284.17z"/>
	
		<linearGradient id="SVGID_11_" gradientUnits="userSpaceOnUse" x1="501.6523" y1="344.667" x2="501.6523" y2="267.9863" gradientTransform="matrix(0.7408 0 0 -0.7408 -90 513.3507)">
		<stop  offset="0" style="stop-color:#FFBF80"/>
		<stop  offset="0" style="stop-color:#FFBF80"/>
		<stop  offset="0.34" style="stop-color:#FFA349"/>
		<stop  offset="0.63" style="stop-color:#FF8E21"/>
		<stop  offset="0.86" style="stop-color:#FF8209"/>
		<stop  offset="1" style="stop-color:#FF7D00"/>
	</linearGradient>
	<path display="inline" fill="url(#SVGID_11_)" d="M301.127,290.593h8.578c0.205-1.391,0.309-2.794,0.311-4.2
		c-0.021-15.686-12.754-28.384-28.439-28.363c-15.686,0.021-28.385,12.754-28.363,28.44c0.021,15.686,12.754,28.384,28.439,28.363
		c11.78-0.016,22.328-7.301,26.512-18.312h-13.467c-5.592,7.225-15.98,8.55-23.206,2.959c-2.886-2.232-4.952-5.356-5.878-8.886
		H301.127z M281.622,269.851c6.897,0,13.071,4.281,15.489,10.741h-30.986C268.547,274.131,274.723,269.851,281.622,269.851z"/>
	
		<linearGradient id="SVGID_12_" gradientUnits="userSpaceOnUse" x1="579.6484" y1="344.707" x2="579.6484" y2="238.0088" gradientTransform="matrix(0.7408 0 0 -0.7408 -90 513.3507)">
		<stop  offset="0" style="stop-color:#FFBF80"/>
		<stop  offset="0" style="stop-color:#FFBF80"/>
		<stop  offset="0.34" style="stop-color:#FFA349"/>
		<stop  offset="0.63" style="stop-color:#FF8E21"/>
		<stop  offset="0.86" style="stop-color:#FF8209"/>
		<stop  offset="1" style="stop-color:#FF7D00"/>
	</linearGradient>
	<path display="inline" fill="url(#SVGID_12_)" d="M355.944,259.48v3.845c-12.746-9.142-30.49-6.22-39.632,6.526
		c-9.143,12.746-6.221,30.49,6.525,39.632c9.895,7.097,23.212,7.097,33.106,0c-0.471,9.123-8.249,16.139-17.372,15.668
		c-5.45-0.281-10.412-3.233-13.259-7.89H312.35c4.762,14.94,20.734,23.192,35.676,18.431c11.784-3.756,19.781-14.707,19.771-27.076
		c0-0.081,0-0.162,0-0.244l0,0V259.48H355.944z"/>
	
		<linearGradient id="SVGID_13_" gradientUnits="userSpaceOnUse" x1="657.6406" y1="344.7178" x2="657.6406" y2="268.0342" gradientTransform="matrix(0.7408 0 0 -0.7408 -90 513.3507)">
		<stop  offset="0" style="stop-color:#FFBF80"/>
		<stop  offset="0" style="stop-color:#FFBF80"/>
		<stop  offset="0.34" style="stop-color:#FFA349"/>
		<stop  offset="0.63" style="stop-color:#FF8E21"/>
		<stop  offset="0.86" style="stop-color:#FF8209"/>
		<stop  offset="1" style="stop-color:#FF7D00"/>
	</linearGradient>
	<path display="inline" fill="url(#SVGID_13_)" d="M413.725,259.48v3.845c-12.742-9.148-30.487-6.234-39.635,6.508
		c-9.147,12.742-6.233,30.487,6.509,39.635c9.898,7.106,23.228,7.106,33.126,0v4.089h11.853V259.48H413.725z M397.184,302.941
		c-9.14,0.004-16.553-7.402-16.557-16.542c-0.004-9.14,7.402-16.552,16.542-16.556c9.14-0.004,16.552,7.401,16.556,16.542
		c0,0.002,0,0.005,0,0.007C413.725,295.529,406.32,302.938,397.184,302.941z"/>
	<path display="inline" fill="#FFFFFF" d="M341.084,282.007c2.106-2.159,4.332-4.196,6.667-6.104c1.163-0.8,1.956-1,2.363-0.585
		s0.252,1.2-0.519,2.333c-1.92,2.338-3.973,4.564-6.148,6.667l0.223,2.563l0.341-0.341c0.241-0.269,0.547-0.473,0.889-0.592
		c0.24-0.072,0.501-0.004,0.674,0.178c0.183,0.176,0.251,0.439,0.178,0.681c-0.117,0.341-0.321,0.645-0.593,0.882l-0.651,0.659
		l1.859,5.349c0.368,1.166,0.507,2.395,0.407,3.614c-0.126,0.903,0,1.178-0.696,1.866c0,0-4.822-10.052-5.334-10.562
		c-0.511-0.512-1.771,0.044-3.704,1.77c-1.533,1.371-3.414,3.03-4.585,3.927c-0.044,0.349,0.696,5.296,0.696,5.296l-0.318,0.986
		l-2.519-4.853l-0.741,0.097l0.111-0.697l-4.867-2.511l0.963-0.341c0,0,4.949,0.74,5.26,0.696c0.867-1.081,2.489-2.89,3.815-4.37
		c1.829-2.045,2.467-3.349,1.918-3.897c-0.548-0.548-10.045-4.808-10.045-4.808c0.689-0.689,0.964-0.57,1.867-0.696
		c1.22-0.1,2.447,0.039,3.615,0.407l4.829,1.341l0.652-0.659c0.242-0.269,0.548-0.473,0.889-0.592
		c0.24-0.074,0.502-0.005,0.675,0.178c0.181,0.176,0.249,0.439,0.178,0.681c-0.115,0.34-0.317,0.644-0.586,0.882l-0.341,0.341
		L341.084,282.007z"/>
	
		<rect x="322.807" y="294.594" transform="matrix(-0.7071 -0.7071 0.7071 -0.7071 338.6739 742.8068)" display="inline" fill="#FFFFFF" width="0.74" height="13.335"/>
	
		<rect x="324.377" y="296.164" transform="matrix(-0.7064 -0.7078 0.7078 -0.7064 339.8317 746.6096)" display="inline" fill="#FFFFFF" width="0.741" height="13.334"/>
	<path display="inline" fill="#AFC8E1" d="M201.492,245.035c0,0,4.445-5.926,9.63-5.926c3.117,0.03,6.077,1.375,8.148,3.704
		c0,0-4.445-6.667-10.371-6.667c-4.074,0-7.408,5.186-7.408,5.186s-3.704-4.445-7.408-4.445c-3.704,0-10.371,5.186-10.371,5.186
		s4.444-2.222,8.889-2.222S201.492,245.035,201.492,245.035z"/>
	<path display="inline" fill="#AFC8E1" d="M176.305,213.181c0,0,3.333-4.444,7.223-4.444c2.338,0.021,4.558,1.031,6.111,2.778
		c0,0-3.333-5-7.778-5c-3.052,0-5.556,3.889-5.556,3.889s-2.778-3.333-5.556-3.333s-7.778,3.889-7.778,3.889
		c2.088-0.998,4.355-1.564,6.667-1.667C172.972,209.292,176.305,213.181,176.305,213.181z"/>
	<path display="inline" fill="#AFC8E1" d="M209.641,199.847c0,0,2.592-3.459,5.615-3.459c1.82,0.017,3.547,0.802,4.756,2.163
		c0,0-2.594-3.889-6.053-3.889c-2.378,0-4.318,3.022-4.318,3.022s-2.163-2.593-4.319-2.593s-6.052,3.03-6.052,3.03
		c1.624-0.775,3.388-1.216,5.186-1.296C207.048,196.825,209.641,199.847,209.641,199.847z"/>
	
		<radialGradient id="SVGID_14_" cx="258.4941" cy="297.707" r="80.2696" gradientTransform="matrix(0.7408 0 0 -0.7408 -90 513.3507)" gradientUnits="userSpaceOnUse">
		<stop  offset="0" style="stop-color:#FFBF80"/>
		<stop  offset="0.22" style="stop-color:#FFBD7D"/>
		<stop  offset="0.39" style="stop-color:#FFB873"/>
		<stop  offset="0.55" style="stop-color:#FFAF62"/>
		<stop  offset="0.7" style="stop-color:#FFA34A"/>
		<stop  offset="0.84" style="stop-color:#FF932B"/>
		<stop  offset="0.98" style="stop-color:#FF8006"/>
		<stop  offset="1" style="stop-color:#FF7D00"/>
	</radialGradient>
	<ellipse display="inline" fill="url(#SVGID_14_)" cx="101.487" cy="292.815" rx="60.744" ry="58.151"/>
	
		<radialGradient id="SVGID_15_" cx="251.9941" cy="289.708" r="93.5214" gradientTransform="matrix(0.7408 0 0 -0.7408 -90 513.3507)" gradientUnits="userSpaceOnUse">
		<stop  offset="0" style="stop-color:#FFFFFF"/>
		<stop  offset="1" style="stop-color:#AFC8E1"/>
	</radialGradient>
	<path display="inline" fill="url(#SVGID_15_)" d="M0,296.889c0,0,7.408,7.408,25.927,7.408s59.262-21.482,77.782-21.482
		c35.558,0,62.966,22.224,72.596,22.224c5.958-0.066,11.808-1.593,17.038-4.444c0,0-4.445,7.407-17.038,7.407
		c-16.297,0-42.224-15.556-63.707-15.556c-26.668,0-60.003,22.223-80.004,22.223C7.408,314.668,0,296.889,0,296.889z"/>
	<path display="inline" fill="none" d="M112.599,292.445c-21.927,0-48.351,15.016-68.152,20.355
		c8.489,22.269,30.824,38.166,57.04,38.166c29.149,0,53.492-19.661,59.374-45.885C146,300.594,128.155,292.445,112.599,292.445z"/>
	
		<radialGradient id="SVGID_16_" cx="243.4883" cy="257.459" r="44.7341" gradientTransform="matrix(0.7408 0 0 -0.7408 -90 513.3507)" gradientUnits="userSpaceOnUse">
		<stop  offset="0" style="stop-color:#FFFFFF"/>
		<stop  offset="1" style="stop-color:#AFC8E1"/>
	</radialGradient>
	<path display="inline" fill="url(#SVGID_16_)" d="M46.669,319.113c0,0,0,10.74,7.778,10.74c18.149,0,40.373-19.631,58.892-19.631
		c14.815,0,22.223,7.408,22.223,7.408c-4.709-1.907-9.735-2.912-14.815-2.963c-20.742,0-47.41,20.371-61.981,20.371
		C48.15,335.039,42.225,329.483,46.669,319.113z"/>
	
		<linearGradient id="SVGID_17_" gradientUnits="userSpaceOnUse" x1="131.4941" y1="304.7783" x2="171.874" y2="304.7783" gradientTransform="matrix(0.7408 0 0 -0.7408 -90 513.3507)">
		<stop  offset="0" style="stop-color:#AFC8E1"/>
		<stop  offset="1" style="stop-color:#3C78AF"/>
	</linearGradient>
	<path display="inline" fill="url(#SVGID_17_)" d="M37.224,288.044c-0.119-1.481-0.185-2.963-0.185-4.489
		c0-2.03,0.096-4.044,0.281-6.03c-18.282,4.385-29.913,11.363-29.913,14.92c0,3.703,5.186,4.443,7.408,5.185
		C6.193,291.163,21.275,288.215,37.224,288.044z"/>
	<g display="inline">
		<path d="M362.939,128.941c0.688,0.59,1.131,1.328,0.935,2.213c-0.492,1.475-1.672,2.655-2.853,3.835l-7.376,6.934
			c-0.147,0.246-0.295,0.492-0.246,0.787c0.394,0.295,0.935,0,1.328-0.246l7.276-5.409c0.688-0.442,1.723-0.836,2.509-0.394
			c0.59,0.394,0.736,0.983,0.736,1.672c-0.639,2.115-1.917,3.934-2.852,5.901c0,0.197,0.146,0.344,0.295,0.394
			c1.426-0.59,2.508-1.918,3.688-3c3.737-4.082,7.818-7.966,12.244-10.72c0.836-0.344,1.918-0.688,2.754-0.246
			c0.886,0.688,1.131,1.917,0.786,3c-0.049,0.246-0.196,0.394-0.344,0.59c0.64-0.098,1.622-0.246,2.213,0.246
			c0.885,1.082,0.147,2.508-0.394,3.491c-0.442,1.229-2.213,1.967-2.065,3.442c0.246,0.59,0.983,0.541,1.476,0.393
			c6.295-3.983,12.344-8.359,18.589-12.441c0.54-0.246,1.277-0.295,1.77,0.049c0.591,0.394,0.738,1.082,0.591,1.77
			c-0.492,1.426-2.064,2.016-3.099,3.049c-6.49,4.819-13.129,9.343-19.769,13.72c-1.082,0.541-2.803,0.492-3.785-0.295
			c-0.688-0.59-0.836-1.426-0.887-2.262c-2.262,2.508-4.867,4.623-7.866,5.656c-0.738,0.295-1.723,0.194-2.36-0.246
			c-0.984-0.641-1.574-1.672-1.328-2.853c-3.049,1.033-5.065,6.196-8.852,3.884c-0.936-1.378-0.1-3.098,0.345-4.425
			c0.196-0.738,1.229-1.623,0.491-2.36l-0.737,0.294c-3.442,3.393-6.394,7.082-9.589,10.522c-0.688,0.541-1.524,0.886-2.459,0.787
			c-0.935-0.541-1.181-1.623-1.033-2.656c0.738-2.508,2.115-4.868,3.099-7.228l-0.886,0.295c-1.476,2.36-3.442,4.574-4.672,7.082
			c-2.065,3-5.212,5.803-8.95,5.113c-1.082-0.345-1.967-1.476-2.064-2.605c0.049-0.246-0.098-0.395-0.049-0.59
			c-2.213,2.213-4.819,4.277-8.115,3.834c-0.935-0.195-1.918-0.836-2.311-1.77c-2.459,2.164-4.917,4.426-8.016,5.063
			c-0.737,0.148-1.475,0.101-1.917-0.59c-0.886-1.229-1.132-2.9-0.836-4.426c-3.591,3.787-7.524,7.918-12.54,8.803
			c-1.918,0.197-3.835-0.246-4.819-2.016c-1.475-3,0-6.345,1.476-8.853c6.099-10.474,16.769-17.358,28.178-18.785
			c0.836,0.099,1.672,0.344,2.164,1.131c0.246,0.64,0.295,1.476-0.049,2.065c-1.033,1.131-2.606,1.377-3.836,2.262
			c0.345,0.147,1.082,0.442,1.229,0.983c0.787,3.294-3.295,4.868-4.771,7.425c-0.737,1.082-1.229,2.803-0.441,4.033
			c0.295,0.49,0.982,0.441,1.376,0.246c2.901-1.182,2.213-4.426,3.492-6.541c2.803-6.098,6.098-14.31,13.67-16.08
			c0.935-0.148,1.967-0.049,2.655,0.59c1.328,1.082,1.475,2.803,1.18,4.376c-1.18,3.688-4.18,6.639-6.934,9.688
			c-1.869,1.967-3.836,3.934-5.853,5.704c0.345,0.442,0.935,0.592,1.524,0.592c2.705-0.592,4.572-3.443,5.951-5.656
			c3.146-3.885,6.981-8.556,11.752-9.835c0.688-0.099,1.375-0.049,1.916,0.246c0.738,0.836,0.641,2.262,0.246,3.245l-0.196,0.394
			c3.344-1.524,4.917-5.212,7.72-7.72c2.017-1.967,4.082-4.18,6.344-5.655C360.727,128.499,362.104,128.155,362.939,128.941
			L362.939,128.941z"/>
		<path fill="#FFFFFF" d="M372.774,144.579c-0.787,0.59-1.623,1.377-2.606,0.983c-0.441-0.442-0.049-0.983,0.147-1.377
			c2.704-3.344,6.146-6.343,9.54-8.753C378.281,138.825,375.677,141.825,372.774,144.579L372.774,144.579z"/>
		<path fill="#FFFFFF" d="M331.715,139.121c-0.05,1.278-0.935,2.212-1.623,3.294c-1.918,2.606-4.082,5.114-6.492,7.523
			c1.229-4.18,3.443-8.114,7.181-11.113C331.074,138.58,331.664,138.628,331.715,139.121L331.715,139.121z"/>
		<path fill="#FFFFFF" d="M303.045,157.855c-1.279,0.836-2.457,2.063-4.082,1.967c-0.492-0.492-0.098-1.279,0-1.818
			c2.558-5.213,8.064-8.753,12.688-11.803c1.523-0.934,3.049-1.819,4.671-2.508C312.535,148.562,308.061,153.725,303.045,157.855
			L303.045,157.855z"/>
		<path fill="#FFFFFF" d="M339.434,150.086c-1.032,1.475-2.262,3.246-3.982,3.836c-0.441,0.146-0.639-0.197-0.787-0.492
			c-0.295-1.918,0.936-3.344,2.065-4.77c0.836-0.983,1.819-1.771,2.803-2.606C338.893,147.185,338.795,148.906,339.434,150.086
			L339.434,150.086z"/>
	</g>
	<g display="inline">
		<g>
			<defs>
				<path id="SVGID_18_" d="M639.318,2.356c-1.35,0.298-2.764,0.663-4.227,1.083c0.627-1.863-0.312-3.911-2.162-4.636
					c-1.906-0.746-4.059,0.193-4.807,2.101c-0.631,1.608-0.059,3.392,1.281,4.356c-1.463,0.516-2.969,1.081-4.508,1.682
					c-0.076-1.404-0.955-2.699-2.348-3.248c-1.906-0.747-4.057,0.194-4.807,2.103c-0.529,1.346-0.213,2.816,0.693,3.827
					c-1.096,0.477-2.203,0.974-3.324,1.484c0.389-1.75-0.547-3.571-2.268-4.247c-1.906-0.747-4.059,0.192-4.807,2.099
					c-0.701,1.79,0.084,3.795,1.76,4.653c-32.984,18.306-74.945,46.127-87.227,58.434c-9.846,8.156-2.342,12.323,3.754,6.537
					c15.799-14.994,54.668-43.181,85.877-60.866c0.24,1.199,1.068,2.254,2.285,2.732c1.908,0.749,4.061-0.194,4.807-2.097
					c0.57-1.454,0.16-3.049-0.91-4.057c1.072-0.579,2.131-1.146,3.178-1.694c-0.547,1.828,0.391,3.803,2.201,4.513
					c1.906,0.747,4.059-0.193,4.807-2.101c0.744-1.905-0.195-4.058-2.104-4.803c-0.041-0.017-0.086-0.031-0.127-0.05
					c2.039-1.012,4.008-1.953,5.896-2.81c-0.215,0.274-0.395,0.585-0.531,0.929c-0.748,1.908,0.195,4.059,2.1,4.805
					c1.906,0.749,4.061-0.192,4.807-2.1c0.748-1.906-0.193-4.057-2.1-4.804c-0.346-0.137-0.701-0.215-1.055-0.245
					c1.535-0.649,3.004-1.237,4.4-1.751c0.406,0.671,1.029,1.22,1.816,1.529c1.906,0.746,4.059-0.193,4.805-2.099
					c0.748-1.907-0.191-4.06-2.102-4.807c-1.904-0.747-4.055,0.192-4.805,2.101C639.389,1.385,639.305,1.874,639.318,2.356
					L639.318,2.356z M521.515,88.955c-6.165,10.104-10.771,22.563-13.184,31.938c-15.313,59.508,94.819,44.5,63.226-2.736
					c-8.195-12.252-25.561-22.728-45.875-29.428c7.275,8.334,29.59,33.58,14.252,40.573
					C521.021,137.922,521.195,97.034,521.515,88.955L521.515,88.955z M514.594,65.144c-1.57-13.02-4.318-24.548-8.241-34.587
					c-6.081-15.555-15.255-27.445-34.358-23.421c-26.28,5.539-41.828,46.132-16.293,62.195c14.398,9.058,34.035,8.288,55.79,1.017
					c-5.529-1.538-25.202-5.75-34.366-13.267c-4.165-3.416-6.161-7.516-3.67-12.356c3.164-6.146,9.289-5.487,13.084-0.79
					C494.719,54.061,504.752,59.769,514.594,65.144L514.594,65.144z M510.148,86.678c-2.642,17.194-1.632,32.82-14.096,46.645
					c-15.026,16.663-44.027,9.182-52.089-8.152c-12.146-26.115,6.097-48.866,28.571-45.642c10.239,1.469,21.967,2.332,35.324,3.194
					c-8.607,6.787-17.658,12.238-27.946,15.547c-16.55,5.324-11.655,22.113,2.235,19.353
					C493.408,115.382,505.247,94.354,510.148,86.678L510.148,86.678z M519.773,57.691c-6.389-16.181-15.142-29.166-11.348-47.39
					c4.572-21.965,33.389-30.129,49.092-19.225c23.658,16.428,19.375,45.273-1.658,53.822c-9.582,3.895-20.146,9.063-32.115,15.053
					c4.01-10.202,9.076-19.472,16.295-27.517c11.605-12.943-1.086-24.973-11.689-15.585C519.755,24.46,520.135,48.59,519.773,57.691
					L519.773,57.691z M539.447,83.025c8.566,9.463,17.23,17.081,25.992,22.853c13.572,8.942,27.547,13.233,40.467-0.704
					c19.857-21.427,4.785-64.223-27.662-57.878c-14.238,2.781-27.014,13.073-38.693,29.003c7.648-2.699,15.291-5.046,22.914-6.309
					c6.744-1.115,24.127-3.115,21.01,8.765c-0.971,3.703-5.24,6.704-13.174,5.393C560.361,81.902,550.057,81.641,539.447,83.025
					L539.447,83.025z"/>
			</defs>
			<clipPath id="SVGID_19_">
				<use xlink:href="#SVGID_18_"  overflow="visible"/>
			</clipPath>
			<g clip-path="url(#SVGID_19_)">
				<defs>
					<rect id="SVGID_20_" x="430.166" y="-19.828" width="217.059" height="200.229"/>
				</defs>
				<clipPath id="SVGID_21_">
					<use xlink:href="#SVGID_20_"  overflow="visible"/>
				</clipPath>
				<g clip-path="url(#SVGID_21_)">
					
						<image overflow="visible" width="460" height="421" xlink:href="440483CB.jpg"  transform="matrix(0.48 0 0 -0.48 428.8809 181.6841)">
					</image>
				</g>
			</g>
		</g>
	</g>
	<rect x="3.444" y="-19.828" display="inline" fill="none" width="217.059" height="200.229"/>
	<g display="inline">
		<linearGradient id="SVGID_22_" gradientUnits="userSpaceOnUse" x1="91.082" y1="39.9116" x2="220.0117" y2="39.9116">
			<stop  offset="0" style="stop-color:#FF371E"/>
			<stop  offset="0.0452" style="stop-color:#FF481E"/>
			<stop  offset="0.1985" style="stop-color:#FF7F1E"/>
			<stop  offset="0.3309" style="stop-color:#FFA71E"/>
			<stop  offset="0.4357" style="stop-color:#FFBF1E"/>
			<stop  offset="0.5" style="stop-color:#FFC81E"/>
			<stop  offset="1" style="stop-color:#FFC81E"/>
		</linearGradient>
		<path fill-rule="evenodd" clip-rule="evenodd" fill="url(#SVGID_22_)" d="M212.597,2.356c-1.35,0.298-2.764,0.663-4.227,1.083
			c0.627-1.863-0.312-3.911-2.162-4.636c-1.906-0.746-4.059,0.193-4.807,2.101c-0.631,1.608-0.059,3.392,1.281,4.356
			c-1.463,0.516-2.969,1.081-4.508,1.682c-0.076-1.404-0.955-2.699-2.348-3.248c-1.906-0.747-4.057,0.194-4.807,2.103
			c-0.529,1.346-0.213,2.816,0.693,3.827c-1.096,0.477-2.203,0.974-3.324,1.484c0.389-1.75-0.547-3.571-2.268-4.247
			c-1.906-0.747-4.059,0.192-4.807,2.099c-0.701,1.79,0.084,3.795,1.76,4.653C150.091,31.919,108.13,59.74,95.849,72.047
			c-9.846,8.156-2.342,12.323,3.754,6.537c15.799-14.994,54.668-43.181,85.877-60.866c0.24,1.199,1.068,2.254,2.285,2.732
			c1.908,0.749,4.061-0.194,4.807-2.097c0.57-1.454,0.16-3.049-0.91-4.057c1.072-0.579,2.131-1.146,3.178-1.694
			c-0.547,1.828,0.391,3.803,2.201,4.513c1.906,0.747,4.059-0.193,4.807-2.101c0.744-1.905-0.195-4.058-2.104-4.803
			c-0.041-0.017-0.086-0.031-0.127-0.05c2.039-1.012,4.008-1.953,5.896-2.81c-0.215,0.274-0.395,0.585-0.531,0.929
			c-0.748,1.908,0.195,4.059,2.1,4.805c1.906,0.749,4.061-0.192,4.807-2.1c0.748-1.906-0.193-4.057-2.1-4.804
			c-0.346-0.137-0.701-0.215-1.055-0.245c1.535-0.649,3.004-1.237,4.4-1.751c0.406,0.671,1.029,1.22,1.816,1.529
			c1.906,0.746,4.059-0.193,4.805-2.099c0.748-1.907-0.191-4.06-2.102-4.807c-1.904-0.747-4.055,0.192-4.805,2.101
			C212.667,1.385,212.583,1.874,212.597,2.356L212.597,2.356z"/>
		<radialGradient id="SVGID_23_" cx="100.7324" cy="73.0479" r="87.0764" gradientUnits="userSpaceOnUse">
			<stop  offset="0" style="stop-color:#FF371E"/>
			<stop  offset="0.0678" style="stop-color:#FF481E"/>
			<stop  offset="0.2977" style="stop-color:#FF7F1E"/>
			<stop  offset="0.4963" style="stop-color:#FFA71E"/>
			<stop  offset="0.6536" style="stop-color:#FFBF1E"/>
			<stop  offset="0.75" style="stop-color:#FFC81E"/>
			<stop  offset="1" style="stop-color:#FFC81E"/>
		</radialGradient>
		<path fill-rule="evenodd" clip-rule="evenodd" fill="url(#SVGID_23_)" d="M94.793,88.955
			c-6.165,10.104-10.771,22.563-13.184,31.938c-15.313,59.508,94.819,44.5,63.226-2.736c-8.195-12.252-25.561-22.728-45.875-29.428
			c7.275,8.334,29.59,33.58,14.252,40.573C94.3,137.922,94.474,97.034,94.793,88.955L94.793,88.955z M87.872,65.144
			c-1.57-13.02-4.318-24.548-8.241-34.587C73.55,15.002,64.376,3.112,45.272,7.136c-26.28,5.539-41.828,46.132-16.293,62.195
			c14.398,9.058,34.035,8.288,55.79,1.017c-5.529-1.538-25.202-5.75-34.366-13.267c-4.165-3.416-6.161-7.516-3.67-12.356
			c3.164-6.146,9.289-5.487,13.084-0.79C67.997,54.061,78.03,59.769,87.872,65.144L87.872,65.144z M83.427,86.678
			c-2.642,17.194-1.632,32.82-14.096,46.645c-15.026,16.663-44.027,9.182-52.089-8.152C5.097,99.055,23.339,76.304,45.813,79.528
			c10.239,1.469,21.967,2.332,35.324,3.194C72.53,89.51,63.479,94.961,53.191,98.27c-16.55,5.324-11.655,22.113,2.235,19.353
			C66.687,115.382,78.525,94.354,83.427,86.678L83.427,86.678z M93.052,57.691C86.663,41.51,77.91,28.525,81.704,10.301
			c4.572-21.965,33.389-30.129,49.092-19.225c23.658,16.428,19.375,45.273-1.658,53.822c-9.582,3.895-20.146,9.063-32.115,15.053
			c4.01-10.202,9.076-19.472,16.295-27.517c11.605-12.943-1.086-24.973-11.689-15.585C93.033,24.46,93.413,48.59,93.052,57.691
			L93.052,57.691z M112.726,83.025c8.566,9.463,17.23,17.081,25.992,22.853c13.572,8.942,27.547,13.233,40.467-0.704
			c19.857-21.427,4.785-64.223-27.662-57.878c-14.238,2.781-27.014,13.073-38.693,29.003c7.648-2.699,15.291-5.046,22.914-6.309
			c6.744-1.115,24.127-3.115,21.01,8.765c-0.971,3.703-5.24,6.704-13.174,5.393C133.64,81.902,123.335,81.641,112.726,83.025
			L112.726,83.025z"/>
	</g>
</g>
</svg>
