<svg xmlns="http://www.w3.org/2000/svg" xmlns:xlink="http://www.w3.org/1999/xlink" viewBox="0 0 583.17 252"><defs><radialGradient id="radial-gradient" cx="134.5" cy="231.5" r="61.48" gradientTransform="translate(0 162.05) scale(1 0.3)" gradientUnits="userSpaceOnUse"><stop offset="0" stop-color="#afc8e1"/><stop offset="1" stop-color="#fff"/></radialGradient><linearGradient id="linear-gradient" x1="285.5" y1="85.5" x2="285.5" y2="160.5" gradientUnits="userSpaceOnUse"><stop offset="0" stop-color="#ffbf80"/><stop offset="0" stop-color="#ffbf80"/><stop offset="0.34" stop-color="#ffa349"/><stop offset="0.63" stop-color="#ff8e21"/><stop offset="0.86" stop-color="#ff8209"/><stop offset="1" stop-color="#ff7d00"/></linearGradient><linearGradient id="linear-gradient-2" x1="380.17" x2="380.17" y2="162.17" xlink:href="#linear-gradient"/><linearGradient id="linear-gradient-3" x1="458.17" x2="458.17" y2="192.17" xlink:href="#linear-gradient"/><linearGradient id="linear-gradient-4" x1="536.17" x2="536.17" y2="162.17" xlink:href="#linear-gradient"/><radialGradient id="radial-gradient-2" cx="137" cy="132.5" r="80.27" gradientUnits="userSpaceOnUse"><stop offset="0" stop-color="#ffbf80"/><stop offset="0.22" stop-color="#ffbd7d"/><stop offset="0.39" stop-color="#ffb873"/><stop offset="0.55" stop-color="#ffaf62"/><stop offset="0.7" stop-color="#ffa34a"/><stop offset="0.84" stop-color="#ff932b"/><stop offset="0.98" stop-color="#ff8006"/><stop offset="1" stop-color="#ff7d00"/></radialGradient><radialGradient id="radial-gradient-3" cx="130.5" cy="140.5" r="93.52" gradientUnits="userSpaceOnUse"><stop offset="0" stop-color="#fff"/><stop offset="1" stop-color="#afc8e1"/></radialGradient><radialGradient id="radial-gradient-4" cx="121.99" cy="172.75" r="44.73" xlink:href="#radial-gradient-3"/><linearGradient id="linear-gradient-5" x1="10" y1="125.43" x2="50.38" y2="125.43" gradientUnits="userSpaceOnUse"><stop offset="0" stop-color="#afc8e1"/><stop offset="1" stop-color="#3c78af"/></linearGradient></defs><title>megatravelogo</title><g style="isolation:isolate"><g id="megatravelogo"><ellipse cx="134.5" cy="231.5" rx="84.5" ry="20.5" style="mix-blend-mode:multiply;fill:url(#radial-gradient)"/><path d="M69,143c0-55.23,40.29-100,90-100,29.18,0,55.11,15.43,71.55,39.35C215.68,50.88,182.75,29,144.5,29,92.31,29,50,69.74,50,120c0,24.6,12.53,51.62,29,68C103,210,69,157.34,69,143Z" style="fill:#ff7d00"/><circle cx="205.5" cy="241.5" r="5" style="fill:#1f56a4"/><path d="M449,227s-50-21-108-21-103.36,16.18-121,25c-8,4-3.31,10.4,4,7,28-13,71-26,117-26C412,212,449,227,449,227Z" style="fill:#fb7d03"/><polygon points="230 168 249 168 249 173 243 173 243 200 237 200 237 173 230 173 230 168" style="fill:#1e5aaf"/><polygon points="392 173 392 168 375 168 375 200 392 200 392 195 381 195 381 186 392 186 392 181 381 181 381 173 392 173" style="fill:#1e5aaf"/><polygon points="415 168 409 168 409 200 426 200 426 195 415 195 415 168" style="fill:#1e5aaf"/><path d="M285,178c0-10-10-10-10-10H263v32h6V186l9,14h7l-8.47-12.7C279.33,187,285,185.53,285,178Zm-10-5s4,0,4,5-4,6-4,6h-6V173Z" style="fill:#1e5aaf"/><path d="M296,200l13-32h4l13,32h-6l-2-6H305l-3,6Zm18.75-12L311,178l-4,10Z" style="fill:#1e5aaf"/><polygon points="364 168 351 200 347 200 334 168 340 168 349 190 358 168 364 168" style="fill:#1e5aaf"/><circle cx="458.17" cy="123.83" r="22.33" style="fill:none"/><path d="M340.5,120.83c0-19.51-12.09-35.33-27-35.33-10.08,0-18.86,7.23-23.5,17.94-4.64-10.71-13.42-17.94-23.5-17.94-7.93,0-15.06,4.47-20,11.6V87.5h-16v73h16v-39h0c0-.06,0-.11,0-.17,0-10.4,6.94-18.83,15.5-18.83s15.5,8.43,15.5,18.83c0,.06,0,.11,0,.17h0v39h16v-39h0c0-.06,0-.11,0-.17,0-10.4,6.94-18.83,15.5-18.83s15.5,8.43,15.5,18.83c0,.06,0,.11,0,.17h0v39h16v-39h0C340.48,121.28,340.5,121.06,340.5,120.83Z" style="fill:url(#linear-gradient)"/><path d="M406.5,129.5h11.58a39.21,39.21,0,0,0,.42-5.67A38.34,38.34,0,1,0,416,137.5H397.82a22.33,22.33,0,0,1-39.26-8H406.5Zm-26.33-28A22.33,22.33,0,0,1,401.08,116H359.25A22.34,22.34,0,0,1,380.17,101.5Z" style="fill:url(#linear-gradient-2)"/><path d="M480.5,87.5v5.19a38.34,38.34,0,1,0,0,62.31,22.33,22.33,0,0,1-41.35,10.5H421.65a38.33,38.33,0,0,0,74.85-11.67c0-.11,0-.22,0-.33h0v-66Z" style="fill:url(#linear-gradient-3)"/><path d="M558.5,87.5v5.19a38.34,38.34,0,1,0,0,62.29v5.52h16v-73Zm-22.33,58.67a22.34,22.34,0,1,1,22.33-22.34A22.34,22.34,0,0,1,536.17,146.17Z" style="fill:url(#linear-gradient-4)"/><path d="M460.44,117.91a108.32,108.32,0,0,1,9-8.24c1.57-1.08,2.64-1.35,3.19-.79s.34,1.62-.7,3.15a106.55,106.55,0,0,1-8.3,9l.3,3.46.46-.46a2.9,2.9,0,0,1,1.2-.8.9.9,0,0,1,.91.24.91.91,0,0,1,.24.92,2.78,2.78,0,0,1-.8,1.19l-.88.89,2.51,7.22a12.75,12.75,0,0,1,.55,4.88c-.17,1.22,0,1.59-.94,2.52,0,0-6.51-13.57-7.2-14.26s-2.39.06-5,2.39c-2.07,1.85-4.61,4.09-6.19,5.3-.06.47.94,7.15.94,7.15L449.3,143l-3.4-6.55-1,.13.15-.94-6.57-3.39,1.3-.46s6.68,1,7.1.94c1.17-1.46,3.36-3.9,5.15-5.9,2.47-2.76,3.33-4.52,2.59-5.26s-13.56-6.49-13.56-6.49c.93-.93,1.3-.77,2.52-.94a12.75,12.75,0,0,1,4.88.55l6.52,1.81.88-.89a2.9,2.9,0,0,1,1.2-.8.89.89,0,0,1,.91.24.92.92,0,0,1,.24.92,2.78,2.78,0,0,1-.79,1.19l-.46.46Z" style="fill:#fff"/><rect x="435.77" y="134.9" width="1" height="18" transform="translate(229.53 -266.34) rotate(45)" style="fill:#fff"/><rect x="437.89" y="137.02" width="1" height="18" transform="translate(231.65 -267.22) rotate(45)" style="fill:#fff"/><path d="M272,68s6-8,13-8a14.91,14.91,0,0,1,11,5s-6-9-14-9c-5.5,0-10,7-10,7s-5-6-10-6-14,7-14,7,6-3,12-3S272,68,272,68Z" style="fill:#afc8e1"/><path d="M238,25s4.5-6,9.75-6A11.18,11.18,0,0,1,256,22.75S251.5,16,245.5,16c-4.12,0-7.5,5.25-7.5,5.25s-3.75-4.5-7.5-4.5S220,22,220,22a23.27,23.27,0,0,1,9-2.25C233.5,19.75,238,25,238,25Z" style="fill:#afc8e1"/><path d="M283,7s3.5-4.67,7.58-4.67A8.69,8.69,0,0,1,297,5.25S293.5,0,288.83,0C285.62,0,283,4.08,283,4.08s-2.92-3.5-5.83-3.5S269,4.67,269,4.67a18.1,18.1,0,0,1,7-1.75C279.5,2.92,283,7,283,7Z" style="fill:#afc8e1"/><ellipse cx="137" cy="132.5" rx="82" ry="78.5" style="fill:url(#radial-gradient-2)"/><path d="M0,138s10,10,35,10,80-29,105-29c48,0,85,30,98,30a49.19,49.19,0,0,0,23-6s-6,10-23,10c-22,0-57-21-86-21-36,0-81,30-108,30C10,162,0,138,0,138Z" style="fill:url(#radial-gradient-3)"/><path d="M152,132c-29.6,0-65.27,20.27-92,27.48C71.46,189.54,101.61,211,137,211c39.35,0,72.21-26.54,80.15-61.94C197.09,143,173,132,152,132Z" style="fill:none"/><path d="M63,168s0,14.5,10.5,14.5C98,182.5,128,156,153,156c20,0,30,10,30,10a54.72,54.72,0,0,0-20-4c-28,0-64,27.5-83.67,27.5C65,189.5,57,182,63,168Z" style="fill:url(#radial-gradient-4)"/><path d="M50.25,126.06c-.16-2-.25-4-.25-6.06,0-2.74.13-5.46.38-8.14C25.7,117.78,10,127.2,10,132c0,5,7,6,10,7C8.36,130.27,28.72,126.29,50.25,126.06Z" style="fill:url(#linear-gradient-5)"/></g></g></svg>